<svg width="150" height="150" viewBox="0 0 150 150" fill="none" xmlns="http://www.w3.org/2000/svg">
<g clip-path="url(#clip0_7788_89923)">
<path d="M75 150C116.421 150 150 116.421 150 75C150 33.5786 116.421 0 75 0C33.5786 0 0 33.5786 0 75C0 116.421 33.5786 150 75 150Z" fill="#003024"/>
<path d="M75 139C62.342 139 49.9683 135.246 39.4435 128.214C28.9188 121.182 20.7157 111.186 15.8717 99.4917C11.0277 87.7973 9.76032 74.929 12.2298 62.5142C14.6992 50.0995 20.7946 38.6958 29.7452 29.7452C38.6958 20.7946 50.0995 14.6992 62.5142 12.2298C74.929 9.76032 87.7973 11.0277 99.4917 15.8717C111.186 20.7157 121.182 28.9188 128.214 39.4435C135.246 49.9683 139 62.342 139 75C138.983 91.9688 132.235 108.238 120.237 120.237C108.238 132.235 91.9688 138.983 75 139V139ZM75 17.8883C63.6982 17.8883 52.6502 21.2397 43.2532 27.5186C33.8561 33.7976 26.5319 42.7221 22.2069 53.1636C17.8819 63.6051 16.7503 75.0946 18.9552 86.1792C21.16 97.2638 26.6024 107.446 34.5939 115.437C42.5855 123.429 52.7674 128.871 63.852 131.076C74.9366 133.281 86.4261 132.149 96.8676 127.824C107.309 123.499 116.234 116.175 122.513 106.778C128.791 97.381 132.143 86.333 132.143 75.0312C132.143 59.876 126.122 45.3415 115.406 34.6251C104.69 23.9087 90.1552 17.8883 75 17.8883V17.8883Z" fill="white"/>
<path d="M49.915 110C48.8767 110 47.8809 109.584 47.1467 108.844C46.4125 108.105 46 107.101 46 106.055V45.0993C46 44.5812 46.1013 44.0682 46.298 43.5895C46.4948 43.1109 46.7831 42.676 47.1467 42.3096C47.5102 41.9433 47.9418 41.6527 48.4168 41.4544C48.8918 41.2562 49.4009 41.1541 49.915 41.1541H50.1291C50.3063 41.1128 50.4876 41.0921 50.6694 41.0925C51.1658 41.0989 51.6544 41.2177 52.0991 41.44C52.5438 41.6623 52.9332 41.9824 53.2386 42.3767L97.1293 94.6815C97.1293 94.1062 97.1293 44.9452 97.1293 44.9452C97.1293 43.8989 97.5417 42.8954 98.2759 42.1555C99.0101 41.4157 100.006 41 101.044 41C102.072 41.0515 103.044 41.4839 103.774 42.214C104.504 42.9442 104.941 43.9206 105 44.9555V105.747C104.997 106.791 104.584 107.792 103.85 108.53C103.116 109.267 102.122 109.682 101.085 109.682C100.526 109.692 99.9733 109.565 99.4742 109.312C99.41 109.276 99.3414 109.248 99.2703 109.229C98.7389 109.077 98.2682 108.761 97.9245 108.325C97.9245 108.325 54.3907 56.3699 53.83 55.774V106.055C53.83 107.101 53.4175 108.105 52.6833 108.844C51.9491 109.584 50.9533 110 49.915 110V110Z" fill="white"/>
</g>
<defs>
<clipPath id="clip0_7788_89923">
<rect width="150" height="150" fill="white"/>
</clipPath>
</defs>
</svg>
