<svg xmlns="http://www.w3.org/2000/svg" viewBox="0 0 201.05 210.79"><defs><style>.cls-2{fill:#f6eae3}.cls-3{fill:none;stroke:#f8ece5;stroke-linecap:round;stroke-linejoin:round;stroke-width:2px}</style></defs><path d="M654.56 487.66c3-4 7.86-4 10.84 0l14.06 18.61a13.86 13.86 0 0014 4.56L715.8 504c4.73-1.44 8.68 1.43 8.77 6.38l.43 23.32a13.85 13.85 0 008.68 11.93l22 7.62c4.68 1.61 6.19 6.26 3.35 10.31l-13.36 19.12a13.89 13.89 0 000 14.76l13.36 19.11c2.84 4.06 1.33 8.7-3.35 10.32l-22 7.61a13.87 13.87 0 00-8.68 11.97l-.43 23.32c-.09 5-4 7.82-8.77 6.37l-22.31-6.79a13.84 13.84 0 00-14 4.56l-14.09 18.61c-3 4-7.86 4-10.84 0l-14.06-18.61a13.84 13.84 0 00-14-4.56l-22.31 6.79c-4.74 1.45-8.68-1.42-8.78-6.37l-.41-23.32a13.86 13.86 0 00-8.67-11.94l-22-7.61c-4.68-1.62-6.19-6.26-3.35-10.32l13.35-19.11a13.85 13.85 0 000-14.76l-13.35-19.12c-2.84-4.05-1.33-8.7 3.35-10.31l22-7.62a13.84 13.84 0 008.67-11.93l.43-23.32c.1-5 4-7.82 8.78-6.38l22.31 6.8a13.86 13.86 0 0014-4.56z" transform="translate(-559.45 -484.69)" fill="#008123"/><path class="cls-2" d="M611.93 642.34l-2.22-2.34 10.55-10 2.22 2.33zM603.34 631.89l-3.26-5.39 1.86-1.12 1.6 2.63 3.14-1.9-1.39-2.29 1.93-1.17 1.38 2.3 5.55-3.35 1.66 2.76zM607.62 619.48l-5 2c-2.81 1.08-4.85.7-6-2.36s.05-4.75 2.85-5.84l5.05-2c2.81-1.08 4.89-.69 6.08 2.38s-.17 4.73-2.98 5.82zm-1.23-5.42l-6.55 2.54c-.8.31-1.55.72-1.19 1.66s1.18.7 2 .39l6.55-2.54c.77-.3 1.56-.69 1.2-1.63s-1.24-.72-2.01-.42zM603.8 608.67l-9.92 1.73-.55-3.14 10.4-1.82c.9-.15 1.88-.44 1.7-1.45s-1.19-.92-2.09-.76L593 605l-.55-3.15 9.91-1.74c3-.52 4.83.14 5.41 3.44s-.96 4.59-3.97 5.12zM592.06 597.1v-2.26l7.08-2.86-7-.13.05-2.67 14.58.27v2.18l-7.61 2.85 7.56.14-.05 2.76zM592.74 584.3l.77-3.61c.79-3.71 2.36-4.5 5.53-3.83l5.17 1.11c3.21.68 4.35 2 3.57 5.73l-.78 3.64zm12.86-1.07c.3-1.42-.3-1.64-1.58-1.92L597.8 580c-1.25-.27-1.79-.24-2.08 1.15l-.11.48 9.88 2.11zM607 570.61l-4.72-2.61c-2.64-1.44-3.67-3.25-2.1-6.13s3.66-3 6.3-1.59l4.76 2.6c2.63 1.43 3.68 3.27 2.1 6.17s-3.67 3-6.34 1.56zm3.34-4.43l-6.16-3.36c-.76-.42-1.56-.73-2 .16s.23 1.35 1 1.77l6.16 3.35c.73.4 1.54.76 2-.13s-.24-1.4-.97-1.79zM612.81 560.72l-7.72-6.46 2-2.44 8.09 6.76c.71.59 1.55 1.15 2.2.37s0-1.5-.76-2.09l-8.09-6.77 2-2.45 7.72 6.45c2.35 2 3 3.78.87 6.35s-3.96 2.24-6.31.28zM614.08 544.23l3.13-2.52c2.28-1.85 4.27-2.43 6.19 0 1.13 1.4 1.61 2.54.92 4l6 4.24-2.59 2.1-5.35-4.09-.72.58 4.11 5.09-2.51 2zm7.1 2.23c1.05-.85.89-1.68.07-2.69s-1.54-1.31-2.49-.54l-.81.66 2.53 3.14zM630.47 533.13l3.53-1.43c2.32-.94 4.52-1.22 5.74 1.79.67 1.63.26 2.78-.88 3.52 1.65-.44 2.95.36 3.73 2.27 1.14 2.81.14 4.61-2.46 5.67l-4.13 1.69zm5.77 4c1.35-.55 1.37-1.31.91-2.45a1.6 1.6 0 00-2.36-.92l-.52.21 1.39 3.4zm2.5 6c1.32-.53 1.46-1.37.93-2.67-.61-1.52-1.29-1.9-2.6-1.37l-.61.25 1.65 4.05zM642.81 528.68l6.41-1.37.46 2.15-3.26.69.76 3.54 2.48-.53.47 2.18-2.48.53.91 4.26 3.29-.7.46 2.13-6.44 1.38zM653.26 537l2.73-.55c.13 1.89.6 2.57 1.41 2.53s.78-.6.75-1.1a3.46 3.46 0 00-1.73-2.69l-1.32-1a4.66 4.66 0 01-2.14-3.7c-.12-2.46 1.37-3.89 3.89-4 3.11-.15 3.68 2.25 3.82 4l-2.75.48c-.1-1.3-.23-2.12-1.06-2.08-.59 0-.83.67-.81 1.18a3 3 0 001.52 2.32l1.26 1a5.51 5.51 0 012.48 4.26 3.59 3.59 0 01-3.63 3.85c-2.75.03-4.15-1.29-4.42-4.5zM665.72 529.17l-2.19-.24.27-2.38 7.57.84-.27 2.38-2.16-.24-1.36 12.11-3.22-.36zM680.81 529.74l5.91 2.18-.75 2-2.89-1.06-1.27 3.45 2.52.93-.78 2.11-2.52-.93-2.24 6.08-3-1.11zM689.87 533.45l2.85 1.48-6.72 12.94-2.86-1.49zM696.1 539.78l-1.8-1.26 1.37-2 6.24 4.36-1.37 2-1.79-1.25-7 10-2.65-1.86zM701.5 553.87l4.15-3.49c2.3-1.93 4.36-2.22 6.46.28s1.49 4.51-.81 6.44l-4.15 3.49c-2.3 1.93-4.39 2.24-6.51-.28s-1.44-4.51.86-6.44zm2.92 4.72l5.37-4.51c.66-.56 1.24-1.19.59-2s-1.34-.28-2 .27l-5.38 4.56c-.63.53-1.26 1.15-.61 1.93s1.39.28 2.03-.25zM717.45 558.08l1.1 2-4.7 6 6.15-3.4 1.29 2.33-12.76 7.06-1.06-1.9 5.17-6.28-6.64 3.66-1.33-2.41zM725.24 575.35l.5 2.21-6.18 4.44 6.85-1.57.59 2.6-14.21 3.25-.49-2.12 6.71-4.6-7.37 1.69-.64-2.65zM727.5 587.47l.25 3.22-14.54 1.13-.25-3.21zM718.05 594.18l5.24.36c3 .2 4.8 1.37 4.57 4.69s-2 4.07-4.48 3.9l-1.26-.09.21-3.14 1.46.1c.84.06 1.74.1 1.81-.92s-.84-1.18-1.72-1.24l-6.84-.46c-1-.07-1.79 0-1.86 1s.83 1.1 1.71 1.16l1.53.1-.22 3.15-1.25-.09c-2.48-.17-4.27-1.23-4.05-4.48s2.2-4.22 5.15-4.04zM726.62 608l-.84 3.11-5.7-1.54-.59 2.17 5.71 1.54-.85 3.13-14.08-3.81.85-3.13 6.15 1.67.59-2.17-6.16-1.67.84-3.11zM722.56 620.82l-2.81 5.92-2-.94 1.43-3-3.27-1.55-1.09 2.29-2-.95 1.08-2.3-3.9-1.87-1.44 3-2-.94 2.82-5.95z" transform="translate(-559.45 -484.69)"/><path class="cls-2" d="M148.82 147.16l.47 3.28 3.25.68-1.55 2.93 2.23 2.46-2.98 1.47.36 3.3-3.27-.57-1.65 2.88-2.32-2.37-3.02 1.35-.48-3.28-3.24-.68 1.54-2.94-2.22-2.46 2.97-1.46-.35-3.3 3.26.56 1.66-2.88 2.31 2.38 3.03-1.35z"/><path class="cls-3" d="M63.63 105.99l67.81-14.78-15.82 45.04-23.3-14.96 38.77-29.91-47.47 25.39-19.99-10.78z"/><path class="cls-3" d="M83.62 116.77l2.96 20 5.74-15.48M100.84 127.2l-14.26 9.57"/></svg>