<svg xmlns="http://www.w3.org/2000/svg" viewBox="0 0 201.05 210.79"><defs><style>.cls-2{fill:#d8b2f7}.cls-3{fill:none;stroke:#d8b2f7;stroke-miterlimit:10;stroke-width:2.25px}</style></defs><path d="M657.52 486.65c3-3.95 7.86-3.95 10.85 0l14 18.62a13.86 13.86 0 0014 4.56l22.31-6.8c4.74-1.44 8.69 1.43 8.78 6.37l.43 23.32a13.86 13.86 0 008.67 11.94l22 7.61c4.68 1.62 6.19 6.26 3.36 10.32l-13.36 19.12a13.83 13.83 0 000 14.75L762 615.58c2.83 4.06 1.32 8.7-3.36 10.32l-22 7.61a13.86 13.86 0 00-8.64 11.94l-.43 23.32c-.09 5-4 7.81-8.78 6.37l-22.31-6.8a13.86 13.86 0 00-14 4.56l-14 18.62c-3 4-7.87 4-10.85 0l-14-18.62a13.88 13.88 0 00-14-4.56l-22.31 6.8c-4.73 1.44-8.68-1.42-8.77-6.37l-.43-23.32a13.88 13.88 0 00-8.67-11.94l-22-7.61c-4.68-1.62-6.19-6.26-3.35-10.32l13.36-19.12a13.87 13.87 0 000-14.75l-13.36-19.12c-2.84-4.06-1.33-8.7 3.35-10.32l22-7.61a13.88 13.88 0 008.67-11.94l.43-23.32c.09-4.94 4-7.81 8.77-6.37l22.31 6.8a13.88 13.88 0 0014-4.56z" transform="translate(-562.42 -483.69)" fill="#312f88"/><path class="cls-2" d="M610.93 642.25l-2.42-2.57 11.62-11 2.43 2.57zM601.48 630.49l-3.43-6 2.07-1.19 1.68 2.93 3.5-2-1.46-2.55 2.14-1.22 1.46 2.55 6.17-3.53 1.76 3.07zM606.52 617l-5.62 1.93c-3.12 1.07-5.34.56-6.51-2.84s.26-5.2 3.38-6.27l5.62-1.93c3.12-1.07 5.38-.56 6.56 2.86s-.32 5.14-3.43 6.25zm-1.12-6l-7.28 2.49c-.89.31-1.73.73-1.37 1.77s1.26.82 2.15.51l7.28-2.5c.86-.29 1.75-.68 1.39-1.72s-1.31-.87-2.17-.55zM602.81 604.92l-11 1.28-.4-3.47 11.49-1.34c1-.12 2.08-.36 1.95-1.48s-1.24-1.09-2.24-1l-11.49 1.34-.41-3.49 11-1.28c3.33-.39 5.28.46 5.7 4.1s-1.26 4.95-4.6 5.34zM590.73 591.39l.23-2.48 8-2.56-7.66-.7.26-2.91 15.92 1.46-.22 2.38-8.55 2.5 8.25.76-.27 3zM592.58 577.24l1.2-3.86c1.23-4 3-4.69 6.42-3.63l5.54 1.72c3.43 1.06 4.55 2.67 3.32 6.61l-1.21 3.9zm14.15.11c.47-1.52-.16-1.82-1.54-2.25l-6.65-2.1c-1.34-.41-1.94-.43-2.4 1.06l-.16.51 10.58 3.28zM601.05 556.76l2.26-3 8.52 4.11-6.35-7.05 2.17-2.94 13 9.29-1.5 2-8.73-6.09 7.45 7.82-1.32 1.79-9.8-4.78 8.48 6.56-1.51 2zM619.41 549.55l-8.53-5.1 2.51-2.2 4.48 2.79-2.32-4.7 2.41-2.11 4 9.07 4.32 4.91-2.56 2.25zM627.47 532.13l3.8-1.71c2.5-1.12 4.9-1.51 6.36 1.73.79 1.77.4 3.05-.82 3.9 1.79-.54 3.23.27 4.17 2.35 1.36 3 .34 5-2.47 6.3l-4.48 2zm6.48 4.1c1.45-.65 1.44-1.49.89-2.72a1.75 1.75 0 00-2.62-.92l-.56.25 1.65 3.68zm3 6.48c1.42-.64 1.55-1.56.92-3-.74-1.64-1.5-2-2.9-1.4l-.67.3 2 4.38zM641 526.75l7-1.65.55 2.35-3.56.83.91 3.87 2.72-.64.56 2.38-2.71.64 1.09 4.65 3.6-.85.55 2.33-7 1.66zM652.64 535.63l3-.62c.16 2.07.67 2.81 1.56 2.76.73 0 .85-.65.82-1.21-.07-1.32-.79-2.07-1.92-2.94l-1.45-1.12a5.16 5.16 0 01-2.38-4c-.15-2.7 1.49-4.28 4.25-4.43 3.41-.19 4 2.45 4.21 4.32l-3 .54c-.12-1.42-.27-2.32-1.18-2.27-.65 0-.91.74-.88 1.29.07 1.19.72 1.78 1.69 2.54l1.38 1.09a6 6 0 012.75 4.65 3.94 3.94 0 01-4 4.26c-2.99.12-4.49-1.32-4.85-4.86zM666.41 527.06l-2.38-.29.31-2.6 8.29 1-.32 2.61-2.37-.29-1.61 13.26-3.53-.43zM683.17 528l6.41 2.59-.9 2.22-3.13-1.27-1.55 3.75 2.73 1.11-.92 2.29-2.73-1.11-2.66 6.59-3.28-1.32zM693.08 532.47l3.06 1.76-8 13.86-3.07-1.76zM699.65 539.75l-1.9-1.49 1.62-2.07 6.59 5.14-1.62 2.07-1.88-1.47-8.23 10.55-2.8-2.19zM704.44 555.62l2.16 2.16c-1.65 1.26-2 2.1-1.47 2.81s1 .36 1.47 0c1.07-.78 1.3-1.79 1.41-3.22l.15-1.82a5.12 5.12 0 012.08-4.2c2.18-1.61 4.39-1.1 6 1.13 2 2.75.17 4.73-1.31 5.89l-2.1-2.23c1.12-.88 1.79-1.49 1.26-2.22a1.12 1.12 0 00-1.57 0 3.3 3.3 0 00-1.2 2.79l-.16 1.76a6 6 0 01-2.39 4.85 3.94 3.94 0 01-5.72-1c-1.76-2.43-1.4-4.5 1.39-6.7zM711.07 564.59l5.23-2.44c3-1.4 5.34-1.22 6.88 2.09s.22 5-2.25 6.13l-1.25.58-1.46-3.13 1.45-.68c.84-.39 1.73-.83 1.25-1.85s-1.43-.68-2.3-.27l-6.82 3.18c-1 .46-1.7 1-1.26 1.93s1.38.62 2.26.21l1.52-.7 1.46 3.13-1.25.58c-2.47 1.15-4.75 1.08-6.26-2.16s-.13-5.19 2.8-6.6zM726.62 573.52l.78 3.45-6.32 1.41.54 2.41 6.32-1.42.77 3.47-15.59 3.5-.78-3.46 6.81-1.53-.53-2.41-6.82 1.53-.8-3.47zM718.39 588.34h5.94c3.29 0 5.23 1.18 5.25 4.77s-1.91 4.85-5.21 4.87h-5.94c-3.29 0-5.27-1.2-5.29-4.81s1.95-4.81 5.25-4.83zm-.86 6h7.69c.95 0 1.88-.13 1.87-1.23s-.93-1.18-1.88-1.18h-7.69c-.91 0-1.88.09-1.88 1.19s.98 1.25 1.89 1.25zM718.14 600.84l5.81 1.23c3.23.69 4.87 2.26 4.12 5.78s-2.89 4.33-6.12 3.64l-5.81-1.23c-3.22-.68-4.9-2.29-4.15-5.82s2.92-4.28 6.15-3.6zm-2.12 5.7l7.53 1.6c.93.2 1.86.27 2.09-.81s-.66-1.35-1.59-1.54l-7.53-1.6c-.89-.19-1.85-.31-2.08.77s.69 1.4 1.56 1.58zM725.19 617.35l-1.37 3.25-12.53-5.26-1.43 3.38-2.2-.93 2.79-6.64z" transform="translate(-562.42 -483.69)"/><path class="cls-2" d="M152.27 143.5l.47 3.28 3.25.68-1.55 2.94 2.23 2.45-2.98 1.47.36 3.3-3.27-.56-1.65 2.87-2.32-2.37-3.02 1.35-.48-3.28-3.24-.68 1.54-2.94-2.22-2.45 2.97-1.47-.35-3.3 3.27.56 1.65-2.87 2.31 2.37 3.03-1.35z"/><path class="cls-3" d="M660.14 562.05a3.28 3.28 0 015.52 0 7 7 0 007.14 2.32 3.29 3.29 0 014.47 3.25 7.06 7.06 0 004.41 6.07 3.28 3.28 0 011.71 5.25 7.07 7.07 0 000 7.51 3.28 3.28 0 01-1.71 5.25 7 7 0 00-4.41 6.07 3.29 3.29 0 01-4.47 3.23 7 7 0 00-7.14 2.32 3.28 3.28 0 01-5.52 0A7 7 0 00653 601a3.28 3.28 0 01-4.46-3.25 7.06 7.06 0 00-4.42-6.07 3.28 3.28 0 01-1.7-5.25 7.07 7.07 0 000-7.51 3.28 3.28 0 011.7-5.25 7.07 7.07 0 004.42-6.07 3.28 3.28 0 014.46-3.25 7 7 0 007.14-2.3z" transform="translate(-562.42 -483.69)"/><path class="cls-2" d="M651.79 601.32l-1.22 35.6a1.2 1.2 0 001.52 1.16 30.87 30.87 0 0012.18-8.57l-1.45.19 11.58 8.12a1.2 1.2 0 001.76-.72 29.59 29.59 0 00.26-6.72c0-2.56-.11-5.12-.27-7.68-.43-7.08-1.09-14.15-1.49-21.24-.09-1.53-2.49-1.54-2.4 0 .4 7 1 13.93 1.47 20.9.16 2.56.25 5.13.29 7.69a30.43 30.43 0 01-.17 6.42l1.76-.72-11.61-8.12a1.2 1.2 0 00-1.46.18 28.22 28.22 0 01-11.12 8l1.52 1.15 1.22-35.6c0-1.55-2.35-1.54-2.4 0z" transform="translate(-562.42 -483.69)"/><path class="cls-3" d="M669.38 585.38a.19.19 0 010-.18l2.11-2.06 2.91-2.82a.89.89 0 00-.21-1.48 1.6 1.6 0 00-.43-.11c-.49-.08-1-.14-1.48-.21l-1.13-.17-1.16-.16-1.13-.17-1.45-.21-.47-.07c-.07 0-.09 0-.12-.08-.61-1.25-1.22-2.49-1.84-3.73l-1.26-2.56a.87.87 0 00-.8-.51.85.85 0 00-.82.5c-.32.63-.63 1.25-.94 1.88l-1.11 2.26-1.05 2.13a.16.16 0 01-.14.11l-.47.07-1.45.21-1.13.17-1.16.16-1.13.17c-.49.07-1 .13-1.48.21a1.44 1.44 0 00-.42.11.89.89 0 00-.22 1.48l2.91 2.82 2.11 2.06a.17.17 0 01.06.18c0 .15 0 .3-.07.45l-.27 1.54-.21 1.22c-.07.44-.15.87-.22 1.31l-.21 1.19-.21 1.22a1 1 0 00.06.53.92.92 0 001.28.42l2.76-1.46 3.41-1.8a.24.24 0 01.26 0l2.24 1.19 3.5 1.83a3.76 3.76 0 00.67.32.88.88 0 001.11-.81 7.53 7.53 0 00-.11-.83c-.07-.43-.15-.85-.22-1.28s-.11-.63-.16-.94-.15-.82-.22-1.23l-.21-1.25c-.09-.53-.18-1.07-.28-1.6z" transform="translate(-562.42 -483.69)"/></svg>