<?xml version="1.0" encoding="UTF-8"?>
<svg id="Layer_1" data-name="Layer 1" xmlns="http://www.w3.org/2000/svg" viewBox="0 0 32 32">
  <defs>
    <style>
      .cls-1 {
        fill: #fff;
      }
    </style>
  </defs>
  <path class="cls-1" d="M16,7.51c-2.4,0-2.7.01-3.65.05-.94.04-1.58.19-2.15.41-.58.23-1.07.53-1.57,1.02-.49.49-.79.99-1.02,1.57-.22.56-.37,1.21-.41,2.15-.04.94-.05,1.24-.05,3.65s.01,2.7.05,3.65c.04.94.19,1.58.41,2.15.23.58.53,1.07,1.02,1.57.49.49.99.79,1.57,1.02.56.22,1.21.37,2.15.41.94.04,1.24.05,3.65.05s2.7-.01,3.65-.05c.94-.04,1.58-.19,2.15-.41.58-.23,1.07-.53,1.57-1.02.49-.49.79-.99,1.02-1.57.22-.56.37-1.21.41-2.15.04-.94.05-1.24.05-3.65s-.01-2.7-.05-3.65c-.04-.94-.19-1.58-.41-2.15-.23-.58-.53-1.08-1.02-1.57-.49-.49-.99-.79-1.57-1.02-.56-.22-1.21-.37-2.15-.41-.94-.04-1.24-.05-3.65-.05ZM16,9.1c2.36,0,2.64,0,3.57.05.86.04,1.33.18,1.64.3.41.16.71.35,1.02.66.31.31.5.6.66,1.02.12.31.27.78.3,1.64.04.93.05,1.21.05,3.57s0,2.64-.05,3.57c-.04.86-.18,1.33-.3,1.64-.16.41-.35.71-.66,1.02-.31.31-.6.5-1.02.66-.31.12-.78.27-1.64.3-.93.04-1.21.05-3.57.05s-2.64,0-3.57-.05c-.86-.04-1.33-.18-1.64-.3-.41-.16-.71-.35-1.02-.66-.31-.31-.5-.6-.66-1.02-.12-.31-.27-.78-.3-1.64-.04-.93-.05-1.21-.05-3.57s0-2.64.05-3.57c.04-.86.18-1.33.3-1.64.16-.41.35-.71.66-1.02.31-.31.6-.5,1.02-.66.31-.12.78-.27,1.64-.3.93-.04,1.21-.05,3.57-.05"/>
  <path class="cls-1" d="M16,19.3c-1.63,0-2.95-1.32-2.95-2.95s1.32-2.95,2.95-2.95,2.95,1.32,2.95,2.95-1.32,2.95-2.95,2.95ZM16,11.81c-2.51,0-4.54,2.03-4.54,4.54s2.03,4.54,4.54,4.54,4.54-2.03,4.54-4.54-2.03-4.54-4.54-4.54M21.78,11.63c0,.59-.48,1.06-1.06,1.06s-1.06-.48-1.06-1.06.48-1.06,1.06-1.06,1.06.48,1.06,1.06"/>
</svg>