<?xml version="1.0" encoding="UTF-8"?>
<svg id="Layer_1" data-name="Layer 1" xmlns="http://www.w3.org/2000/svg" viewBox="0 0 32 32">
  <defs>
    <style>
      .cls-1 {
        fill: #fff;
      }
    </style>
  </defs>
  <path class="cls-1" d="M15.6,13.9v3.17c-.24-.04-.46-.08-.69-.1-1.3-.1-2.42.72-2.66,1.87-.24,1.15.16,2.08,1.27,2.7,1,.56,2.61.34,3.38-.89.23-.37.31-.76.32-1.19,0-1.48.03-2.96.03-4.43,0-2.47,0-4.94.01-7.42v-.22h2.91c.06.32.1.65.18.97.3,1.21,1,2.13,2.16,2.7.58.28,1.2.47,1.85.56.09.01.19.03.29.05v2.87c-1.57-.06-3.01-.45-4.33-1.37v.24c0,1.94,0,3.88-.01,5.81,0,1.44-.53,2.7-1.58,3.73-1.46,1.42-3.24,1.94-5.27,1.53-1.37-.27-2.49-1-3.3-2.09-1.1-1.47-1.35-3.11-.81-4.83.34-1.09,1.03-1.98,1.99-2.67.79-.57,1.67-.9,2.64-1.03.53-.07,1.07-.06,1.61.04Z"/>
</svg>