<?xml version="1.0" encoding="UTF-8"?>
<svg id="Layer_1" data-name="Layer 1" xmlns="http://www.w3.org/2000/svg" viewBox="0 0 32 32">
  <defs>
    <style>
      .cls-1 {
        fill: #fff;
      }
    </style>
  </defs>
  <path class="cls-1" d="M17.33,22.42h-2.55s-.09-.02-.13-.02c-1-.03-2-.05-3-.1-.76-.04-1.52-.1-2.27-.23-.95-.16-1.56-.77-1.79-1.74-.2-.84-.25-1.71-.29-2.58-.02-.33-.03-.66-.05-.98v-1.41s.02-.09.02-.14c.02-.47.03-.95.07-1.43.04-.7.1-1.4.28-2.08.23-.87.77-1.45,1.62-1.67.74-.19,1.51-.21,2.27-.25,1.03-.05,2.06-.07,3.09-.1.05,0,.11-.01.16-.02h2.6s.09.02.13.02c.81.02,1.61.03,2.42.07.89.05,1.78.12,2.67.23.99.12,1.65.7,1.93,1.7.29,1.03.29,2.11.27,3.17-.02,1.04.03,2.08,0,3.12-.02.52-.05,1.04-.13,1.56-.07.48-.15,1.09-.38,1.51-.28.52-.83.86-1.37.99-.76.19-1.54.22-2.31.25-1.03.05-2.06.07-3.09.1-.04,0-.09,0-.14.02ZM14.29,18.77c1.54-.92,3.05-1.82,4.59-2.73-1.54-.92-3.05-1.82-4.59-2.73v5.46Z"/>
</svg>